<svg width="215" height="215" viewBox="0 0 215 215" fill="none" xmlns="http://www.w3.org/2000/svg">
<g clip-path="url(#clip0_110_3)">
<path d="M0 103.2C0 54.55 -1.43051e-05 30.2 15.11 15.11C30.22 0.0199995 54.55 0 103.2 0H111.8C160.45 0 184.8 0 199.89 15.11C214.98 30.22 215 54.55 215 103.2V111.8C215 160.45 215 184.8 199.89 199.89C184.78 214.98 160.45 215 111.8 215H103.2C54.55 215 30.2 215 15.11 199.89C0.0199852 184.78 0 160.45 0 111.8V103.2Z" fill="black"/>
<path fill-rule="evenodd" clip-rule="evenodd" d="M108 38C69.325 38 38 69.325 38 108C38 138.975 58.0375 165.138 85.8625 174.413C89.3625 175.025 90.675 172.925 90.675 171.088C90.675 169.425 90.5875 163.913 90.5875 158.05C73 161.288 68.45 153.762 67.05 149.825C66.2625 147.812 62.85 141.6 59.875 139.937C57.425 138.625 53.925 135.387 59.7875 135.3C65.3 135.212 69.2375 140.375 70.55 142.475C76.85 153.062 86.9125 150.088 90.9375 148.25C91.55 143.7 93.3875 140.637 95.4 138.887C79.825 137.137 63.55 131.1 63.55 104.325C63.55 96.7125 66.2625 90.4125 70.725 85.5125C70.025 83.7625 67.575 76.5875 71.425 66.9625C71.425 66.9625 77.2875 65.125 90.675 74.1375C96.275 72.5625 102.225 71.775 108.175 71.775C114.125 71.775 120.075 72.5625 125.675 74.1375C139.063 65.0375 144.925 66.9625 144.925 66.9625C148.775 76.5875 146.325 83.7625 145.625 85.5125C150.088 90.4125 152.8 96.625 152.8 104.325C152.8 131.187 136.438 137.137 120.863 138.887C123.4 141.075 125.588 145.275 125.588 151.838C125.588 161.2 125.5 168.725 125.5 171.088C125.5 172.925 126.813 175.113 130.313 174.413C144.209 169.721 156.284 160.79 164.839 148.877C173.393 136.963 177.996 122.667 178 108C178 69.325 146.675 38 108 38Z" fill="white"/>
</g>
<defs>
<clipPath id="clip0_110_3">
<rect width="215" height="215" fill="white"/>
</clipPath>
</defs>
</svg>
